<svg version="1.0" xmlns="http://www.w3.org/2000/svg"
 width="561.000000pt" height="145.000000pt" viewBox="0 0 561.000000 145.000000"
 preserveAspectRatio="xMidYMid meet">

<g transform="translate(0.000000,145.000000) scale(0.100000,-0.100000)"
fill="#FFFFFF" stroke="none">
<g fill="#f3a447">
<path d="M720 1384 c-96 -30 -370 -108 -468 -134 -99 -26 -133 -40 -99 -40 14
0 17 -12 17 -75 0 -52 -4 -76 -14 -82 -25 -15 -37 -50 -26 -79 7 -18 7 -37 1
-58 -6 -17 -13 -63 -17 -101 l-6 -71 36 -19 c36 -19 36 -19 72 0 l37 20 -5 87
c-3 50 -11 95 -18 103 -10 12 -10 19 -2 27 19 19 14 63 -8 83 -17 15 -20 31
-20 92 0 40 4 73 8 73 5 0 44 -11 88 -24 140 -41 134 -41 134 -6 0 42 38 63
170 95 121 29 186 31 285 10 160 -34 215 -61 215 -107 0 -10 4 -18 9 -18 15 0
243 59 248 64 3 3 -15 10 -38 16 -24 6 -87 24 -139 40 -52 15 -144 42 -205 59
-60 17 -123 35 -140 40 -59 18 -71 19 -115 5z m-512 -382 c4 -28 -24 -40 -45
-19 -14 13 -14 19 -3 32 18 22 44 15 48 -13z m-45 -160 c-3 -45 -10 -82 -16
-82 -11 0 -4 141 8 160 12 20 14 6 8 -78z m53 -5 c5 -55 4 -77 -5 -77 -6 0
-11 16 -11 39 0 21 -3 60 -6 87 -5 36 -4 46 5 39 6 -6 14 -46 17 -88z"/>
<path d="M645 1254 c-38 -7 -82 -18 -97 -24 -16 -5 -41 -15 -58 -21 l-30 -11
0 -84 c0 -46 2 -84 3 -84 2 0 19 8 38 17 45 22 172 29 224 11 32 -11 47 -11
75 -1 66 23 166 14 253 -22 15 -6 17 1 17 79 0 47 -1 86 -3 86 -1 0 -27 9 -57
20 -63 24 -206 50 -259 49 -20 0 -67 -7 -106 -15z m-117 -116 c-4 -55 -28 -64
-28 -10 0 21 3 42 7 45 16 17 24 4 21 -35z m492 12 c0 -11 -4 -20 -10 -20 -5
0 -10 9 -10 20 0 11 5 20 10 20 6 0 10 -9 10 -20z m0 -50 c0 -5 -4 -10 -10
-10 -5 0 -10 5 -10 10 0 6 5 10 10 10 6 0 10 -4 10 -10z"/>
<path d="M525 1021 l-40 -19 145 -1 c134 -1 149 -3 200 -27 64 -30 123 -28
187 5 l38 19 -40 18 c-58 25 -154 30 -207 10 -39 -15 -47 -16 -80 -1 -52 21
-153 19 -203 -4z"/>
</g>
<path d="M1201 974 c-81 -22 -148 -62 -201 -122 l-47 -53 -13 31 c-7 17 -35
51 -62 75 -76 68 -114 76 -364 73 l-209 -3 -3 -78 -3 -77 31 -6 30 -6 0 -284
c0 -267 -1 -284 -18 -284 -31 0 -42 -22 -42 -81 0 -95 -14 -89 209 -89 219 0
273 9 347 61 23 16 55 48 71 72 l28 44 68 -63 c89 -82 153 -108 262 -108 105
0 177 27 246 95 l50 48 -3 83 -3 83 -50 11 c-83 20 -88 18 -113 -35 -35 -75
-107 -100 -189 -66 -77 33 -115 107 -115 229 -1 169 92 274 220 250 40 -8 102
-61 102 -88 0 -20 27 -20 95 -3 l50 13 3 112 3 112 -38 0 c-20 0 -56 9 -80 21
-54 26 -138 49 -178 48 -16 0 -54 -7 -84 -15z m-397 -59 c134 -69 176 -236 86
-339 l-30 -33 30 -38 c35 -44 50 -91 50 -156 0 -94 -85 -203 -178 -229 -20 -5
-124 -10 -229 -10 l-193 0 0 23 c0 12 -3 32 -6 45 -5 19 -2 23 25 28 l31 6 0
309 0 309 -25 6 c-23 6 -25 11 -25 61 l0 55 203 -4 203 -3 58 -30z m634 1 c28
-14 62 -26 75 -26 23 0 24 -4 31 -81 4 -45 5 -83 4 -84 -2 -1 -24 -5 -49 -9
-40 -6 -47 -4 -51 12 -3 10 -22 32 -43 48 -34 26 -46 29 -111 29 -65 0 -76 -3
-115 -31 -27 -20 -54 -53 -74 -90 -28 -53 -30 -66 -30 -158 0 -118 20 -171 85
-230 86 -77 240 -53 280 44 12 30 15 31 54 24 23 -3 45 -8 49 -11 4 -3 5 -32
1 -66 -8 -76 -33 -107 -119 -148 -51 -25 -72 -29 -140 -29 -68 0 -90 5 -142
29 -72 34 -153 110 -153 143 0 20 2 20 30 -12 16 -19 29 -38 30 -41 0 -4 24
-22 53 -42 96 -64 218 -73 321 -23 74 36 98 65 104 124 4 47 3 50 -24 56 -23
6 -31 4 -39 -11 -25 -45 -84 -91 -134 -103 -176 -42 -322 152 -277 369 19 89
46 140 97 184 84 73 202 71 281 -4 29 -27 50 -39 71 -39 28 0 29 2 23 31 -3
17 -6 43 -6 58 0 23 -10 30 -78 60 -92 41 -183 47 -269 18 -58 -20 -135 -83
-160 -131 -14 -25 -18 -27 -21 -13 -5 25 42 90 89 123 69 48 134 65 224 61 62
-4 93 -11 133 -31z m-24 -50 c52 -23 86 -56 86 -84 0 -8 -18 2 -42 23 -148
126 -359 54 -425 -144 -24 -73 -24 -207 0 -278 38 -111 141 -187 252 -186 76
0 119 18 173 74 24 25 42 38 42 29 0 -32 -39 -76 -91 -105 -74 -40 -170 -41
-244 -3 -116 60 -176 169 -179 323 -3 195 87 336 239 376 46 12 129 1 189 -25z"/>
<path d="M358 915 c-11 -12 5 -53 23 -58 34 -9 39 -51 39 -340 0 -240 -2 -286
-16 -305 -8 -12 -22 -22 -30 -22 -9 0 -14 -11 -14 -30 l0 -30 180 0 c145 0
188 3 222 17 88 35 142 100 154 185 9 61 -10 119 -54 169 l-39 43 29 24 c84
71 80 210 -9 294 -54 52 -86 58 -291 58 -104 0 -191 -2 -194 -5z m413 -46 c59
-30 109 -105 109 -164 0 -38 -27 -90 -65 -129 l-45 -44 34 -22 c20 -12 44 -40
56 -66 46 -95 7 -209 -89 -256 -41 -21 -62 -23 -211 -26 -147 -2 -163 -1 -146
13 10 8 22 16 26 17 8 3 15 299 12 519 -2 145 -2 146 -27 157 -14 6 -25 15
-25 19 0 5 75 6 167 4 139 -3 174 -6 204 -22z"/>
<path d="M533 863 c-23 -4 -23 -7 -23 -159 l0 -154 26 -6 c42 -11 188 2 221
20 66 34 101 110 82 181 -23 84 -92 125 -209 123 -41 0 -85 -3 -97 -5z m190
-37 c50 -21 79 -59 84 -110 5 -39 1 -51 -21 -81 -41 -54 -74 -66 -164 -63
l-77 3 -3 127 c-3 144 -9 135 91 137 32 0 72 -5 90 -13z"/>
<path d="M570 705 l0 -105 75 0 c68 0 77 2 107 29 28 25 33 36 33 76 0 40 -5
51 -33 76 -30 27 -39 29 -107 29 l-75 0 0 -105z m154 54 c19 -15 26 -30 26
-55 0 -52 -28 -74 -95 -74 l-55 0 0 75 0 75 49 0 c34 0 56 -6 75 -21z"/>
<path d="M510 355 l0 -165 91 0 c116 0 161 13 204 61 56 62 59 149 8 210 -41
48 -78 59 -198 59 l-105 0 0 -165z m212 125 c55 -16 88 -60 88 -121 0 -96 -58
-139 -190 -139 l-80 0 0 129 0 130 33 4 c64 8 113 7 149 -3z"/>
<path d="M570 351 l0 -111 55 0 c31 0 70 6 89 14 74 31 99 112 52 171 -23 28
-28 30 -110 34 l-86 3 0 -111z m138 73 c12 -4 30 -20 38 -36 31 -60 -21 -118
-106 -118 l-40 0 0 80 0 80 43 0 c23 0 52 -3 65 -6z"/>
<path d="M2790 770 c-45 -18 -59 -33 -41 -45 7 -4 11 -66 11 -171 0 -139 -2
-164 -15 -164 -8 0 -15 -7 -15 -15 0 -12 14 -15 70 -15 68 0 87 10 55 28 -13
7 -15 24 -13 88 3 74 4 79 26 82 40 6 52 -14 52 -90 0 -52 -4 -70 -15 -74 -8
-4 -15 -12 -15 -20 0 -11 17 -14 70 -14 56 0 70 3 70 15 0 8 -6 15 -14 15 -11
0 -15 21 -18 91 -3 82 -5 93 -28 111 -24 20 -53 20 -107 3 -22 -7 -22 -5 -25
93 l-3 100 -45 -18z"/>
<path d="M1743 753 c-37 -5 -42 -17 -13 -33 19 -10 20 -21 20 -155 0 -157 -3
-175 -31 -175 -11 0 -19 -7 -19 -16 0 -14 15 -16 128 -12 77 3 138 10 155 18
33 16 57 57 57 99 0 32 -43 91 -66 91 -8 0 -14 5 -14 10 0 6 5 10 10 10 20 0
50 41 50 69 0 80 -104 115 -277 94z m172 -56 c35 -49 6 -107 -52 -107 l-33 0
0 64 c0 42 4 66 12 68 23 8 59 -4 73 -25z m10 -167 c29 -30 27 -96 -4 -122
-31 -24 -62 -20 -78 12 -14 27 -18 122 -6 134 12 12 66 -3 88 -24z"/>
<path d="M3385 748 c-114 -40 -168 -173 -115 -283 26 -54 66 -82 144 -102 55
-13 72 -14 127 -2 61 14 64 16 73 50 5 20 6 45 2 55 -8 18 -8 18 -19 -1 -32
-53 -65 -75 -112 -75 -56 0 -90 21 -116 71 -24 49 -26 147 -2 196 41 86 161
99 207 22 24 -41 36 -36 36 16 0 40 -3 47 -26 55 -33 13 -160 11 -199 -2z"/>
<path d="M2320 721 c-15 -29 -13 -39 14 -56 31 -21 66 -5 66 28 0 46 -59 66
-80 28z"/>
<path d="M3124 639 c-10 -12 -31 -27 -46 -35 -30 -16 -37 -34 -13 -34 12 0 15
-16 15 -88 0 -76 3 -91 20 -107 34 -31 130 -16 130 21 0 11 -6 13 -20 9 -37
-12 -50 11 -50 91 l0 73 32 3 c46 4 49 28 4 28 -33 0 -36 2 -36 30 0 35 -10
38 -36 9z"/>
<path d="M2123 599 c-43 -20 -52 -32 -33 -44 6 -3 10 -42 10 -86 0 -64 -3 -79
-15 -79 -8 0 -15 -7 -15 -15 0 -12 15 -15 75 -15 60 0 75 3 75 15 0 8 -9 15
-20 15 -18 0 -20 7 -20 80 0 82 6 92 39 71 22 -14 51 6 51 35 0 32 -26 42 -62
21 -27 -15 -28 -15 -28 3 0 24 -3 24 -57 -1z"/>
<path d="M2343 601 c-41 -15 -54 -33 -33 -46 6 -3 10 -37 10 -76 0 -56 -4 -72
-19 -86 -30 -25 -16 -33 60 -33 65 0 90 12 54 26 -12 5 -15 27 -15 114 0 60
-3 111 -7 113 -5 2 -27 -4 -50 -12z"/>
<path d="M3955 602 c-52 -20 -50 -18 -36 -45 7 -13 11 -51 9 -92 l-3 -70 -35
3 c-19 2 -37 6 -40 9 -3 2 -5 41 -5 85 0 73 -2 81 -25 100 -19 16 -35 19 -69
15 -65 -7 -130 -62 -104 -88 16 -16 63 3 63 25 0 7 7 19 15 26 21 17 45 -4 45
-40 0 -25 -6 -30 -57 -46 -46 -15 -60 -25 -68 -47 -18 -55 35 -96 93 -71 27
11 38 11 49 3 20 -17 72 -13 94 7 17 16 19 16 19 1 0 -14 11 -17 64 -17 65 0
90 11 61 28 -13 7 -15 24 -13 88 l3 79 30 0 30 0 3 -82 c2 -53 -1 -83 -8 -83
-5 0 -10 -7 -10 -15 0 -12 13 -15 59 -15 61 0 84 12 56 28 -13 7 -15 24 -13
88 l3 79 30 0 30 0 3 -82 c2 -53 -1 -83 -8 -83 -5 0 -10 -7 -10 -15 0 -12 14
-15 64 -15 67 0 90 11 59 29 -15 8 -19 26 -21 100 -4 79 -7 93 -25 106 -27 19
-60 19 -98 0 -27 -14 -32 -14 -51 0 -28 19 -65 19 -100 1 -26 -14 -28 -13 -28
5 0 22 -2 22 -55 1z m-187 -164 c-2 -25 -8 -33 -23 -33 -23 0 -32 30 -15 50
22 27 42 18 38 -17z"/>
<path d="M4418 602 c-37 -17 -48 -35 -28 -47 6 -4 10 -67 10 -155 0 -140 -1
-150 -20 -160 -36 -19 -11 -30 66 -30 59 0 74 3 74 15 0 8 -9 15 -20 15 -18 0
-20 7 -20 59 l0 59 40 0 c90 1 156 88 131 172 -20 67 -87 99 -143 69 -17 -9
-23 -8 -30 5 -11 19 -12 19 -60 -2z m127 -57 c19 -18 25 -35 25 -67 0 -69 -43
-111 -78 -76 -17 17 -16 155 1 161 22 9 28 7 52 -18z"/>
<path d="M2515 601 c-60 -26 -78 -100 -35 -146 l24 -25 -22 -16 c-26 -18 -28
-41 -6 -65 15 -16 14 -19 -5 -31 -30 -18 -27 -62 5 -87 33 -26 130 -29 174 -6
58 30 85 89 60 135 -12 23 -83 44 -117 35 -28 -7 -63 2 -63 16 0 5 11 9 25 9
66 0 125 49 125 102 0 23 4 28 25 28 18 0 25 5 25 19 0 15 -10 20 -57 25 -121
15 -139 15 -158 7z m73 -33 c7 -7 12 -31 12 -54 0 -73 -50 -84 -64 -14 -11 57
21 99 52 68z m52 -252 c32 -40 -16 -87 -74 -72 -29 7 -52 45 -43 70 8 21 99
22 117 2z"/>
<path d="M4736 601 c-22 -3 -41 -12 -44 -18 -2 -7 1 -13 6 -13 5 0 11 -41 14
-90 3 -65 9 -95 20 -106 18 -18 76 -21 106 -5 27 15 32 14 32 -5 0 -10 6 -14
14 -11 7 3 34 9 60 12 29 5 46 12 46 21 0 8 -9 14 -20 14 -19 0 -20 7 -20 106
0 105 0 106 -22 100 -13 -3 -38 -6 -55 -6 -35 0 -46 -23 -18 -34 11 -4 15 -22
15 -74 0 -75 -13 -99 -49 -87 -18 5 -21 16 -23 102 -2 54 -7 97 -13 98 -5 1
-28 -1 -49 -4z"/>
<path d="M5052 594 c-56 -39 -49 -95 19 -133 29 -16 39 -29 39 -47 0 -33 -42
-33 -68 1 -28 36 -46 33 -38 -7 7 -36 20 -47 56 -49 74 -4 116 15 126 57 9 37
-9 69 -56 99 -42 26 -51 51 -23 62 11 4 23 -3 37 -20 28 -35 36 -34 36 3 0 19
-7 33 -19 40 -29 15 -83 12 -109 -6z"/>
</g>
</svg>
